<svg width="126" height="24" viewBox="0 0 126 24" fill="none" xmlns="http://www.w3.org/2000/svg">
<path d="M0.599174 22.6757C0.63567 22.9494 0.887149 23.1417 1.16087 23.1052L5.6214 22.5105C5.89511 22.474 6.08742 22.2225 6.05093 21.9488C6.01443 21.6751 5.76295 21.4828 5.48923 21.5193L1.52432 22.0479L0.995665 18.083C0.959169 17.8093 0.707689 17.617 0.433969 17.6535C0.160249 17.69 -0.0320591 17.9415 0.00443685 18.2152L0.599174 22.6757ZM124.595 0.109619L124.107 0.219245C125.34 5.70764 124.737 9.53191 122.821 12.164C120.899 14.805 117.572 16.3645 113.089 17.1245C104.106 18.6474 90.8831 16.9003 76.4165 14.8023C61.9952 12.7109 46.3861 10.2807 32.7583 10.5081C19.1499 10.7352 7.3455 13.6125 0.697609 22.3059L1.09479 22.6096L1.49197 22.9133C7.84408 14.6067 19.2271 11.734 32.775 11.508C46.3035 11.2823 61.8194 13.6959 76.273 15.7919C90.6814 17.8815 104.083 19.6656 113.256 18.1104C117.852 17.3313 121.485 15.6994 123.63 12.7525C125.781 9.7967 126.349 5.63659 125.083 -6.52671e-06L124.595 0.109619Z" fill="black"/>
</svg>
