<svg width="116" height="42" viewBox="0 0 116 42" fill="none" xmlns="http://www.w3.org/2000/svg">
<path d="M0.146447 37.3173C-0.0488155 37.5126 -0.0488155 37.8292 0.146447 38.0245L3.32843 41.2064C3.52369 41.4017 3.84027 41.4017 4.03553 41.2064C4.2308 41.0112 4.2308 40.6946 4.03553 40.4993L1.20711 37.6709L4.03553 34.8425C4.2308 34.6472 4.2308 34.3306 4.03553 34.1354C3.84027 33.9401 3.52369 33.9401 3.32843 34.1354L0.146447 37.3173ZM115 0.170898L114.53 2.58833e-05C111.596 8.06878 104.081 14.2418 94.5383 18.7022C85.0072 23.1572 73.5323 25.8654 62.8201 27.0487C52.101 28.2328 42.1985 27.8843 35.8104 26.2641C32.595 25.4486 30.3768 24.3365 29.3406 23.0333C28.8374 22.4005 28.6194 21.7318 28.684 21.0125C28.7499 20.2799 29.1146 19.4379 29.8881 18.486L29.5 18.1707L29.1119 17.8554C28.2604 18.9034 27.7775 19.9286 27.688 20.923C27.5974 21.9308 27.9165 22.849 28.5579 23.6557C29.8107 25.2314 32.3113 26.4083 35.5646 27.2334C42.114 28.8945 52.149 29.2336 62.9299 28.0427C73.7177 26.851 85.3053 24.1217 94.9617 19.6081C104.607 15.0998 112.404 8.77289 115.47 0.341771L115 0.170898ZM29.5 18.1707L29.8881 18.486C32.9872 14.6716 37.5487 13.911 41.5057 14.9511C45.4989 16.0008 48.7039 18.8299 49.1934 21.9971C49.6701 25.0819 47.5999 28.862 40.2077 31.9118C32.8363 34.953 20.3507 37.1709 0.5 37.1709V37.6709V38.1709C20.3993 38.1709 33.0387 35.9513 40.5891 32.8362C48.1188 29.7297 50.7674 25.6347 50.1816 21.8444C49.6086 18.1366 45.9698 15.0906 41.7599 13.984C37.5138 12.8678 32.5128 13.6697 29.1119 17.8554L29.5 18.1707Z" fill="black"/>
</svg>
