<svg width="84" height="26" viewBox="0 0 84 26" fill="none" xmlns="http://www.w3.org/2000/svg">
<path d="M83.784 21.4368C83.9454 21.2127 83.8945 20.9002 83.6704 20.7389L80.0188 18.1092C79.7947 17.9478 79.4822 17.9986 79.3208 18.2227C79.1595 18.4468 79.2103 18.7593 79.4344 18.9206L82.6803 21.2582L80.3428 24.5041C80.1814 24.7282 80.2323 25.0406 80.4563 25.202C80.6804 25.3634 80.9929 25.3125 81.1543 25.0885L83.784 21.4368ZM0.378235 0.327148L1.47521e-05 0.65418C18.162 21.659 45.3759 27.8341 83.4585 21.6381L83.3782 21.1446L83.2979 20.6511C45.3806 26.8202 18.5944 20.6302 0.756455 0.000117004L0.378235 0.327148Z" fill="black"/>
</svg>
