<svg width="148" height="48" viewBox="0 0 148 48" fill="none" xmlns="http://www.w3.org/2000/svg">
<path d="M57.8437 45.6041L58.0049 46.0775L57.8437 45.6041ZM147.915 31.9291C148.016 32.1863 147.889 32.4763 147.632 32.577L143.441 34.2174C143.184 34.3181 142.894 34.1912 142.793 33.9341C142.693 33.677 142.82 33.3869 143.077 33.2862L146.801 31.8281L145.343 28.1033C145.243 27.8462 145.369 27.5561 145.627 27.4555C145.884 27.3548 146.174 27.4816 146.274 27.7388L147.915 31.9291ZM0.44928 0.219482L0.898575 6.85304e-05C2.45689 3.19098 5.30009 6.0366 9.03581 8.60445C12.7685 11.1702 17.3604 13.437 22.3716 15.4825C32.4 19.5759 44.0224 22.7505 53.6694 25.6716C58.4829 27.1291 62.8106 28.5255 66.1804 29.9404C67.8657 30.6479 69.3249 31.3657 70.4916 32.1054C71.6521 32.8412 72.5591 33.621 73.0988 34.4667C73.6522 35.3339 73.8178 36.2724 73.479 37.25C73.151 38.1965 72.3713 39.118 71.1759 40.037C68.7852 41.875 64.5263 43.857 58.0049 46.0775L57.8437 45.6041L57.6825 45.1308C64.192 42.9144 68.3153 40.9749 70.5664 39.2442C71.6919 38.379 72.2979 37.6043 72.5342 36.9226C72.7596 36.272 72.6678 35.6502 72.2558 35.0046C71.8301 34.3375 71.0636 33.6521 69.9561 32.9499C68.8548 32.2517 67.4516 31.5586 65.7933 30.8624C62.4761 29.4696 58.1928 28.0861 53.3796 26.6286C43.7731 23.7199 32.079 20.525 21.9937 16.4083C16.9481 14.3488 12.2839 12.0506 8.46935 9.42854C4.65787 6.8086 1.6628 3.84374 0 0.438896L0.44928 0.219482ZM57.8437 45.6041L58.0049 46.0775C53.4341 47.6338 49.9675 48.021 47.5957 47.5029C46.4019 47.2421 45.4598 46.7459 44.808 46.0274C44.1522 45.3047 43.825 44.395 43.7986 43.3774C43.7467 41.3715 44.8577 38.9311 46.9263 36.4237C49.008 33.9005 52.1096 31.247 56.1655 28.8062C72.3977 19.0375 104.051 12.5867 147.65 31.6533L147.449 32.1114L147.249 32.5695C103.897 13.6107 72.5915 20.088 56.6811 29.663C52.7013 32.058 49.6932 34.6414 47.6977 37.0601C45.6892 39.4946 44.7556 41.7012 44.7983 43.3515C44.8193 44.1619 45.0742 44.8326 45.5486 45.3555C46.027 45.8827 46.7632 46.2975 47.8091 46.5259C49.9169 46.9864 53.1756 46.6654 57.6825 45.1308L57.8437 45.6041Z" fill="black"/>
</svg>
