<svg width="87" height="15" viewBox="0 0 87 15" fill="none" xmlns="http://www.w3.org/2000/svg">
<path d="M0.404543 13.8602C0.133492 13.8074 -0.0434479 13.5449 0.00933663 13.2739L0.869505 8.85683C0.922289 8.58577 1.18481 8.40883 1.45586 8.46162C1.72691 8.5144 1.90385 8.77692 1.85107 9.04797L1.08647 12.9742L5.01272 13.7388C5.28377 13.7916 5.46071 14.0541 5.40792 14.3252C5.35514 14.5962 5.09262 14.7732 4.82157 14.7204L0.404543 13.8602ZM86.5572 8.01422L86.3355 8.46239C78.2763 4.47592 63.9335 1.04463 48.0581 1.00052C32.1876 0.956424 14.8541 4.2977 0.77957 13.784L0.500117 13.3694L0.220664 12.9548C14.5148 3.32047 32.0666 -0.0439167 48.0608 0.000524403C64.0501 0.0449508 78.5515 3.49641 86.7789 7.56605L86.5572 8.01422Z" fill="black"/>
</svg>
