<svg width="133" height="29" viewBox="0 0 133 29" fill="none" xmlns="http://www.w3.org/2000/svg">
<path d="M132.029 27.4999C132.305 27.495 132.525 27.2671 132.52 26.991L132.439 22.4917C132.434 22.2156 132.206 21.9958 131.93 22.0008C131.654 22.0058 131.434 22.2336 131.439 22.5097L131.511 26.5091L127.512 26.5809C127.236 26.5859 127.016 26.8137 127.021 27.0898C127.026 27.3659 127.254 27.5857 127.53 27.5807L132.029 27.4999ZM0.5 0L0 -2.45536e-07C-4.11272e-06 8.42214 1.39739 14.5847 3.97715 18.9684C6.56754 23.3702 10.3253 25.9361 14.9413 27.201C19.5384 28.4606 24.9803 28.4291 30.9704 27.6718C36.9643 26.914 43.5484 25.4234 50.4414 23.7357C64.2513 20.3542 79.3044 16.1835 93.5675 15.4055C107.815 14.6283 121.186 17.2432 131.673 27.3598L132.02 27L132.367 26.6402C121.604 16.2568 107.91 13.6217 93.513 14.407C79.1318 15.1915 63.9611 19.3958 50.2035 22.7643C43.3128 24.4516 36.7772 25.9297 30.8449 26.6797C24.9088 27.4302 19.6181 27.4456 15.2056 26.2365C10.8118 25.0326 7.28289 22.6141 4.83899 18.4613C2.38447 14.2903 0.999996 8.32786 1 2.45536e-07L0.5 0Z" fill="black"/>
</svg>
