<svg width="59" height="27" viewBox="0 0 59 27" fill="none" xmlns="http://www.w3.org/2000/svg">
<path d="M33.4227 22.4777L33.0314 22.789L33.4227 22.4777ZM0.0445806 22.2716C-0.0692517 22.5232 0.0424219 22.8194 0.294011 22.9332L4.39388 24.7882C4.64547 24.9021 4.9417 24.7904 5.05554 24.5388C5.16937 24.2872 5.0577 23.991 4.80611 23.8771L1.16178 22.2283L2.81067 18.5839C2.9245 18.3323 2.81283 18.0361 2.56124 17.9223C2.30965 17.8084 2.01342 17.9201 1.89958 18.1717L0.0445806 22.2716ZM58.0001 0.121338L57.515 7.00802e-05C55.5255 7.9583 51.7757 16.4393 47.3876 21.4342C45.1898 23.936 42.8928 25.4942 40.6376 25.7607C38.4255 26.0221 36.111 25.0538 33.8139 22.1664L33.4227 22.4777L33.0314 22.789C35.4702 25.8545 38.0957 27.0681 40.7549 26.7538C43.371 26.4447 45.8763 24.6698 48.1389 22.0942C52.6717 16.9345 56.4748 8.28438 58.4852 0.242606L58.0001 0.121338ZM33.4227 22.4777L33.8139 22.1664C29.0613 16.1923 25.4495 12.8121 22.4666 11.2322C20.9655 10.4372 19.6074 10.0891 18.3346 10.108C17.0609 10.1269 15.9112 10.5126 14.8272 11.125C13.749 11.7342 12.7265 12.573 11.7031 13.5084C10.6968 14.4281 9.61618 15.512 8.5164 16.54C6.27442 18.6358 3.71742 20.7305 0.323748 22.0098L0.500122 22.4777L0.676496 22.9455C4.25466 21.5966 6.92653 19.3951 9.19929 17.2706C10.3569 16.1885 11.3551 15.1811 12.3777 14.2465C13.3832 13.3276 14.3397 12.549 15.3191 11.9957C16.2928 11.4456 17.2795 11.1238 18.3494 11.1079C19.4202 11.092 20.613 11.3821 21.9986 12.1159C24.7893 13.594 28.2946 16.8349 33.0314 22.789L33.4227 22.4777Z" fill="black"/>
</svg>
