<?xml version="1.0" standalone="no"?>
<!DOCTYPE svg PUBLIC "-//W3C//DTD SVG 20010904//EN"
 "http://www.w3.org/TR/2001/REC-SVG-20010904/DTD/svg10.dtd">
<svg version="1.0" xmlns="http://www.w3.org/2000/svg"
 width="736.000000pt" height="736.000000pt" viewBox="0 0 736.000000 736.000000"
 preserveAspectRatio="xMidYMid meet">

<g transform="translate(0.000000,736.000000) scale(0.100000,-0.100000)"
fill="#000000" stroke="none">
<path d="M2585 6287 c-128 -131 -277 -297 -283 -317 -2 -6 -8 -10 -14 -10 -6
0 -35 -12 -63 -27 -47 -23 -55 -31 -69 -77 -19 -59 -62 -117 -182 -247 -203
-220 -271 -295 -304 -338 -19 -25 -63 -76 -98 -113 -35 -36 -71 -77 -80 -89
-9 -13 -42 -51 -73 -84 -58 -61 -231 -256 -328 -368 -29 -34 -88 -98 -131
-142 -82 -86 -114 -136 -124 -201 -7 -40 -6 -42 51 -95 59 -54 125 -108 308
-249 54 -41 109 -84 123 -96 l25 -21 -35 -104 c-42 -122 -78 -251 -78 -279 0
-30 34 -47 222 -112 264 -91 365 -127 463 -163 50 -18 137 -50 195 -70 58 -20
188 -72 290 -115 102 -43 235 -97 295 -120 61 -23 120 -46 132 -50 18 -8 21
-14 16 -50 -4 -30 -1 -45 12 -60 24 -27 81 -27 95 0 10 19 30 18 56 -1 12 -10
1 -79 -31 -199 -11 -44 -13 -66 -6 -68 18 -6 13 -33 -6 -30 -12 2 -19 -9 -28
-42 -6 -25 -19 -59 -28 -77 -60 -114 -72 -285 -27 -373 42 -82 94 -155 145
-200 189 -169 214 -232 149 -367 -16 -34 -54 -79 -108 -131 l-84 -79 -3 -89
c-2 -49 0 -95 4 -102 21 -32 114 0 188 66 89 79 127 224 100 385 -49 304 -68
361 -148 466 -63 84 -102 177 -114 276 -20 160 -1 224 109 377 33 47 62 78 73
78 31 0 31 -20 0 -55 -54 -62 -64 -161 -25 -238 9 -17 46 -68 82 -112 73 -89
131 -204 157 -310 19 -78 15 -207 -10 -325 -14 -64 -13 -66 18 -160 31 -91 34
-95 61 -95 39 0 60 31 102 151 39 114 43 187 19 319 -32 177 -67 247 -167 339
-40 36 -76 66 -80 66 -4 0 -19 20 -34 45 -24 41 -26 53 -23 129 2 47 7 88 11
91 8 8 22 -3 210 -170 69 -60 167 -146 218 -190 94 -81 210 -184 348 -309 42
-38 91 -75 109 -82 17 -8 57 -34 87 -59 31 -25 64 -45 75 -45 22 0 92 53 189
144 37 34 99 89 137 121 39 32 130 116 203 186 132 127 134 129 160 115 36
-18 146 -46 183 -46 34 0 77 20 101 46 19 22 117 241 154 346 28 79 73 134
174 213 30 23 71 57 90 75 19 18 64 57 100 87 384 316 533 445 649 559 56 57
101 108 99 114 -4 12 -121 114 -228 199 -41 32 -89 74 -107 92 l-32 34 49 97
c27 54 52 114 56 134 6 33 3 39 -47 91 -30 30 -78 69 -106 86 -29 17 -53 35
-53 39 0 4 10 31 21 60 65 162 131 348 135 383 5 31 2 45 -12 61 -20 22 -132
62 -244 88 -36 9 -91 24 -123 35 -31 11 -137 37 -235 57 -97 20 -186 40 -198
44 -59 23 -354 93 -544 130 -119 23 -229 50 -247 60 -22 13 -33 15 -36 7 -6
-19 -213 49 -261 86 -19 14 -19 15 6 60 33 58 22 87 -38 102 -30 8 -66 34
-145 107 -57 53 -140 126 -184 163 -44 36 -127 106 -185 155 -58 49 -141 117
-185 152 -44 34 -130 105 -191 159 -93 81 -115 96 -136 92 -30 -6 -149 -100
-174 -138 -9 -14 -22 -25 -30 -25 -8 0 -60 40 -116 88 -175 151 -230 192 -257
192 -19 0 -57 -32 -156 -133z m272 29 c54 -49 126 -115 160 -148 l63 -60 -132
-140 c-94 -99 -136 -137 -147 -133 -9 4 -45 14 -81 22 -36 8 -98 26 -138 39
-40 14 -108 29 -150 35 -115 16 -115 17 -45 90 33 35 65 73 71 84 14 27 285
306 294 302 3 -1 51 -42 105 -91z m509 -67 c38 -40 184 -164 254 -216 30 -22
93 -73 140 -112 47 -40 117 -99 155 -131 39 -32 118 -100 177 -149 59 -50 110
-91 113 -91 3 0 23 -18 45 -40 l41 -41 -37 -44 c-20 -25 -43 -45 -51 -45 -22
0 -322 79 -343 90 -9 5 -66 25 -126 45 -60 20 -116 43 -124 50 -8 8 -36 23
-63 34 -38 16 -136 82 -214 144 -7 5 -13 7 -13 4 0 -2 32 -31 72 -63 39 -32
67 -59 62 -61 -5 -2 -68 17 -139 43 -163 57 -389 130 -433 139 -20 4 -32 12
-30 20 3 13 119 140 201 220 22 22 70 71 106 109 74 77 136 126 161 126 9 0
29 -14 46 -31z m-961 -359 c39 -6 112 -25 163 -41 51 -16 99 -29 107 -29 9 0
64 -15 123 -34 59 -19 168 -53 242 -76 147 -45 498 -163 705 -236 72 -25 197
-62 280 -83 82 -21 151 -43 153 -49 3 -10 -124 -191 -205 -291 -24 -29 -62
-86 -85 -125 -22 -39 -47 -78 -54 -86 -12 -15 -141 -225 -254 -415 -197 -333
-196 -330 -223 -397 l-16 -36 -65 26 c-70 29 -79 43 -105 146 -29 122 -94 204
-198 253 -61 28 -166 40 -214 24 -145 -48 -216 -314 -132 -492 36 -77 75 -120
168 -185 39 -26 98 -70 131 -96 60 -47 159 -98 190 -98 27 0 26 -27 -5 -89
-28 -54 -35 -61 -61 -61 -17 0 -54 13 -83 29 -28 16 -88 39 -132 51 -44 12
-115 39 -157 60 -43 22 -78 35 -78 30 0 -22 84 -63 200 -100 147 -46 253 -98
246 -120 -2 -8 -18 -46 -35 -85 -55 -125 -133 -339 -145 -397 -6 -31 -15 -60
-19 -64 -4 -4 -51 13 -105 38 -298 141 -474 215 -668 282 -71 25 -178 63 -239
84 -60 22 -200 71 -310 109 -227 79 -245 87 -245 111 0 23 42 173 70 247 12
33 33 96 47 139 14 44 44 127 68 185 23 58 63 165 88 236 130 367 192 535 214
578 13 26 21 52 18 57 -4 6 3 22 14 36 12 15 21 31 21 36 0 11 54 125 152 323
96 193 216 504 221 571 4 54 49 61 212 34z m-325 -226 c0 -8 -11 -43 -24 -77
-13 -34 -31 -84 -41 -112 -10 -27 -62 -138 -115 -246 -54 -108 -109 -225 -123
-260 -27 -67 -71 -163 -86 -189 -5 -8 -19 -49 -31 -90 -12 -41 -31 -94 -42
-119 l-19 -44 -29 28 c-17 16 -30 24 -30 18 0 -7 11 -20 25 -31 14 -11 25 -25
25 -32 0 -21 -62 -211 -87 -268 l-24 -54 -39 36 c-22 20 -44 36 -50 36 -5 0
-21 18 -35 40 -14 22 -30 40 -37 40 -7 0 -6 -6 4 -17 8 -10 18 -26 21 -35 3
-9 23 -28 44 -41 21 -14 49 -37 62 -53 28 -33 28 -37 -41 -206 -28 -70 -48
-108 -58 -108 -8 0 -37 18 -65 39 -27 22 -84 63 -125 92 -41 29 -116 86 -166
126 -59 47 -97 71 -107 67 -13 -4 -15 3 -13 44 3 61 37 122 98 177 24 22 77
80 118 129 40 49 99 117 130 150 30 34 80 90 110 126 30 36 77 90 105 120 103
115 251 284 265 306 9 13 47 58 86 101 130 144 256 288 268 306 14 21 26 22
26 1z m2245 -321 c-27 -52 -71 -130 -96 -172 -25 -42 -67 -112 -94 -156 -27
-44 -76 -123 -110 -175 -34 -52 -73 -115 -85 -140 -12 -25 -47 -78 -78 -118
-30 -41 -72 -106 -94 -145 -79 -145 -131 -215 -164 -221 -17 -4 -52 -20 -77
-36 -26 -16 -47 -26 -47 -22 0 9 53 99 155 262 91 146 216 349 291 471 29 48
81 125 116 172 34 46 87 117 115 158 136 191 165 228 181 232 39 9 37 -15 -13
-110z m72 -82 c89 -35 349 -97 533 -126 113 -19 180 -34 400 -90 102 -26 264
-65 360 -85 168 -36 262 -60 454 -118 110 -33 119 -46 91 -130 -10 -31 -27
-73 -37 -94 -9 -20 -32 -81 -49 -135 -17 -54 -58 -164 -90 -244 -32 -81 -77
-197 -99 -259 -22 -61 -56 -153 -76 -203 -46 -119 -47 -122 -85 -252 -61 -211
-208 -638 -263 -762 -20 -45 -36 -85 -36 -90 0 -11 -100 -258 -160 -395 -53
-121 -72 -140 -148 -146 -49 -3 -70 1 -130 27 -38 17 -73 31 -76 31 -3 0 -33
14 -68 30 -35 17 -101 43 -148 59 -47 16 -152 52 -235 80 -82 28 -193 63 -245
77 -120 32 -158 44 -358 110 -89 30 -172 54 -183 54 -41 0 -249 60 -249 72 0
10 44 32 110 53 143 46 160 70 143 204 -12 93 -59 240 -97 305 -32 54 -157
175 -224 215 -28 18 -50 37 -46 42 3 5 39 9 81 9 42 0 103 4 137 10 33 5 108
17 166 25 193 30 300 83 300 150 0 36 -25 31 -36 -6 -5 -18 -20 -40 -34 -50
-29 -21 -220 -64 -330 -74 -90 -9 -320 -13 -337 -7 -7 2 -13 14 -13 27 0 29 6
30 205 50 88 9 188 22 223 30 35 8 75 15 89 15 48 0 106 24 137 56 26 28 32
30 42 16 12 -17 34 -9 34 14 0 8 -12 38 -26 67 -28 55 -149 188 -168 184 -6
-1 -11 6 -11 15 0 27 -70 110 -120 143 -25 17 -45 34 -45 39 0 4 13 25 29 45
15 20 59 87 96 150 38 63 90 143 117 179 27 35 60 87 74 115 15 29 43 75 64
103 21 28 55 85 76 125 21 41 55 100 76 132 22 32 55 88 75 125 19 37 39 75
44 85 12 21 8 21 66 -2z m-1545 -863 c44 -59 43 -62 -35 -116 -69 -47 -117
-109 -117 -148 0 -25 -17 -15 -31 18 -20 49 -14 128 14 184 36 71 58 87 128
93 9 0 28 -14 41 -31z m114 -14 c59 -31 113 -81 135 -126 61 -123 91 -237 114
-435 13 -113 13 -129 0 -142 -9 -10 -18 -12 -23 -6 -10 11 -51 130 -83 238
-28 93 -89 237 -157 371 -31 61 -58 114 -60 119 -7 15 26 6 74 -19z m-4 -191
c15 -35 28 -69 28 -77 0 -30 -49 -28 -155 8 -11 4 -7 0 8 -9 35 -20 114 -45
144 -45 27 0 44 -30 84 -145 15 -44 40 -111 54 -150 33 -84 40 -115 29 -115
-5 0 -47 33 -93 73 -46 39 -95 81 -110 92 -15 11 -53 49 -85 85 -32 36 -67 72
-77 81 -10 9 -28 41 -39 72 l-21 55 22 57 c18 48 30 63 81 101 l61 45 20 -33
c11 -18 33 -61 49 -95z m3195 55 c40 -23 143 -111 156 -134 5 -8 -2 -28 -16
-51 -14 -21 -41 -68 -61 -105 -23 -43 -43 -68 -54 -68 -14 0 -162 133 -162
145 0 3 50 136 81 213 10 27 9 27 56 0z m-2506 -80 c22 -12 39 -24 39 -27 0
-3 -20 -19 -45 -36 -77 -52 -237 -254 -286 -362 -13 -29 -27 -53 -31 -53 -23
0 2 143 36 209 10 19 19 50 20 70 1 23 11 46 26 62 14 14 53 56 88 92 71 75
90 81 153 45z m135 -113 c27 -31 77 -87 112 -125 48 -54 62 -76 62 -101 0 -35
-29 -91 -44 -86 -6 2 -25 32 -43 67 -39 75 -65 111 -146 196 -35 38 -66 63
-74 60 -23 -9 -14 11 18 38 38 32 49 27 115 -49z m-1115 -7 c92 -116 368 -378
396 -378 14 0 62 -48 63 -62 0 -17 -92 23 -145 63 -31 24 -93 69 -137 100
-108 77 -141 111 -181 188 -35 66 -53 131 -38 131 4 0 23 -19 42 -42z m1015
-40 c94 -102 174 -223 177 -266 2 -34 0 -37 -38 -50 -93 -31 -395 -55 -395
-32 0 16 69 149 100 195 38 55 84 145 77 151 -8 9 -198 -292 -220 -350 -4 -9
-11 -16 -16 -16 -12 0 29 106 70 179 52 91 154 215 170 205 4 -2 10 0 14 6 11
18 30 11 61 -22z m-402 -8 c25 -10 46 -25 46 -32 -1 -23 -67 -182 -77 -185 -6
-2 -13 27 -16 69 -4 40 -9 94 -13 121 -8 54 -5 55 60 27z m2772 -51 c16 -17
65 -59 108 -92 44 -33 88 -69 98 -79 10 -10 40 -35 66 -54 69 -52 111 -85 151
-120 20 -17 46 -36 59 -43 12 -6 22 -18 22 -26 0 -15 -224 -219 -335 -305 -38
-30 -92 -75 -120 -100 -27 -25 -84 -72 -125 -103 -79 -60 -153 -121 -259 -215
-83 -73 -147 -122 -160 -122 -11 0 6 57 34 110 9 18 50 128 90 244 40 116 81
231 92 256 11 25 25 68 32 95 6 28 23 90 38 138 20 67 30 86 41 82 12 -4 13
-3 3 9 -10 12 -7 32 19 103 67 189 94 253 105 253 6 0 24 -14 41 -31z m-2766
-229 c0 -28 -4 -40 -14 -40 -25 0 -28 18 -9 50 9 16 19 30 20 30 2 0 3 -18 3
-40z m-2 -72 c9 -12 0 -121 -13 -155 -7 -21 -40 -15 -65 12 -19 21 -22 32 -18
76 4 35 12 57 24 66 23 16 58 17 72 1z m67 -163 c11 -8 50 -37 87 -65 71 -53
167 -159 197 -218 37 -72 72 -207 78 -292 5 -77 3 -88 -17 -112 -12 -16 -30
-28 -41 -28 -15 0 -19 7 -19 38 0 60 -35 184 -79 278 -47 100 -154 266 -212
328 -30 34 -39 50 -34 66 8 24 15 25 40 5z m-149 -44 c-87 -162 -173 -375
-253 -626 -20 -60 -39 -113 -42 -118 -4 -4 -15 -1 -25 6 -16 12 -17 20 -7 90
12 86 42 178 125 382 54 132 77 178 133 268 23 36 24 37 48 21 14 -9 23 -19
21 -23z m111 -13 c11 -13 37 -48 57 -78 40 -60 34 -72 -27 -51 -52 19 -17 -7
39 -28 59 -23 93 -73 153 -226 54 -136 70 -224 49 -268 -13 -28 -25 -36 -78
-50 -82 -23 -154 -60 -213 -109 -43 -36 -51 -39 -73 -29 -28 12 -30 28 -8 60
15 20 21 22 65 16 27 -4 49 -4 49 -1 0 3 -18 15 -39 26 l-39 19 13 45 c20 64
39 379 32 527 -9 206 -23 188 -31 -37 -13 -369 -30 -478 -94 -574 -55 -83
-122 -170 -131 -170 -4 0 0 37 10 83 55 270 75 358 114 504 24 89 51 202 60
250 9 48 18 94 20 101 7 20 50 14 72 -10z m-188 -309 c-43 -140 -64 -220 -96
-372 -7 -35 -17 -41 -43 -27 -28 15 -22 41 58 270 60 174 118 307 128 298 2
-3 -19 -79 -47 -169z m250 -507 c-88 -98 -109 -126 -109 -145 0 -11 -4 -36
-10 -56 -5 -20 -12 -53 -15 -73 -3 -21 -10 -38 -14 -38 -26 0 -40 124 -21 176
17 45 166 178 204 183 5 1 -11 -21 -35 -47z m119 20 c25 -18 51 -26 170 -53
26 -6 69 -20 95 -30 26 -11 57 -17 67 -14 12 4 62 -9 117 -29 123 -43 304 -99
406 -125 58 -14 87 -28 116 -54 21 -19 49 -38 62 -42 13 -4 37 -19 53 -34 27
-24 28 -25 17 -3 -7 12 -33 33 -58 45 -74 35 -63 48 19 22 128 -41 341 -116
370 -131 15 -8 28 -19 28 -24 0 -5 -59 -62 -131 -127 -324 -291 -402 -358
-461 -399 l-37 -26 -42 36 c-23 19 -45 33 -49 31 -4 -2 -27 14 -51 37 -24 22
-78 70 -120 107 -42 36 -121 107 -176 156 -55 50 -153 137 -218 195 -66 58
-151 134 -190 170 -38 36 -91 83 -117 104 -27 21 -48 43 -48 48 0 22 64 115
93 136 38 27 51 27 85 4z m-478 -253 c0 -5 -4 -9 -10 -9 -5 0 -10 7 -10 16 0
8 5 12 10 9 6 -3 10 -10 10 -16z m-70 -206 c1 -99 46 -221 120 -318 25 -33 56
-83 69 -110 25 -54 55 -145 49 -151 -2 -2 -30 21 -63 51 -33 30 -62 55 -66 55
-15 0 -103 127 -130 187 -24 51 -29 76 -29 139 0 77 24 184 41 184 5 0 9 -17
9 -37z m519 -169 c17 -26 39 -70 50 -98 29 -78 55 -249 48 -320 -6 -63 -50
-206 -73 -240 -13 -19 -14 -17 -30 20 -9 21 -16 57 -15 79 4 97 7 120 15 126
4 4 12 46 17 94 13 122 -5 217 -65 357 -20 47 -20 51 3 39 10 -6 33 -32 50
-57z m-227 -706 c8 -21 -20 -137 -43 -182 -27 -53 -63 -92 -118 -127 -49 -32
-66 -36 -74 -16 -7 20 11 120 24 127 27 17 179 175 184 192 7 21 21 24 27 6z"/>
<path d="M3268 5763 c7 -3 16 -2 19 1 4 3 -2 6 -13 5 -11 0 -14 -3 -6 -6z"/>
<path d="M2320 5356 c0 -2 8 -10 18 -17 15 -13 16 -12 3 4 -13 16 -21 21 -21
13z"/>
<path d="M2380 5327 c0 -3 26 -11 58 -17 103 -21 225 -61 323 -106 53 -24 100
-44 105 -44 4 0 35 -11 68 -24 64 -26 234 -58 400 -76 56 -7 115 -20 136 -30
20 -10 54 -22 75 -26 22 -4 56 -15 75 -25 19 -11 42 -19 50 -19 8 0 -9 14 -39
30 -30 17 -66 30 -80 30 -14 0 -51 12 -81 26 -41 19 -82 28 -160 34 -219 19
-425 72 -576 149 -88 45 -354 118 -354 98z"/>
<path d="M2190 4869 c14 -6 63 -17 110 -25 47 -7 117 -23 155 -34 39 -11 115
-24 170 -30 115 -11 153 -22 213 -62 56 -38 98 -55 180 -73 37 -8 93 -23 125
-34 33 -11 82 -24 110 -27 95 -12 172 -31 214 -53 43 -21 85 -29 68 -12 -25
24 -143 62 -236 76 -57 9 -126 23 -152 31 -26 9 -88 26 -137 39 -59 14 -118
38 -170 69 -72 42 -89 47 -177 57 -54 6 -136 20 -183 31 -91 22 -197 42 -270
51 -37 5 -41 4 -20 -4z"/>
<path d="M2040 4406 c0 -8 71 -25 172 -42 49 -8 103 -21 118 -29 51 -26 211
-76 233 -73 14 2 -7 12 -53 26 -41 13 -100 33 -130 44 -67 25 -143 43 -236 57
-39 6 -78 13 -87 17 -10 3 -17 4 -17 0z"/>
<path d="M1700 3886 c0 -2 7 -7 16 -10 8 -3 12 -2 9 4 -6 10 -25 14 -25 6z"/>
<path d="M1794 3844 c16 -9 78 -25 137 -35 84 -14 128 -28 201 -63 75 -37 111
-48 183 -57 50 -6 110 -18 133 -26 24 -8 46 -12 49 -9 13 13 -95 46 -193 60
-86 12 -123 23 -188 55 -62 31 -107 44 -196 59 -63 11 -124 23 -135 27 -11 3
-7 -1 9 -11z"/>
<path d="M2530 3625 c7 -8 17 -15 22 -15 6 0 5 7 -2 15 -7 8 -17 15 -22 15 -6
0 -5 -7 2 -15z"/>
<path d="M5086 4929 c3 -10 -4 -25 -17 -38 l-23 -21 22 0 c30 0 45 32 27 56
-12 15 -14 15 -9 3z"/>
<path d="M5204 4929 c-3 -6 -15 -9 -25 -6 -11 3 -17 1 -13 -4 8 -13 36 -10 58
6 17 13 17 15 4 15 -9 0 -20 -5 -24 -11z"/>
<path d="M5270 4923 c0 -17 31 -53 46 -53 9 0 27 9 41 20 29 22 18 26 -23 8
-23 -11 -28 -10 -45 11 -11 13 -19 19 -19 14z"/>
<path d="M5402 4886 c7 -8 15 -12 17 -11 5 6 -10 25 -20 25 -5 0 -4 -6 3 -14z"/>
<path d="M5470 4865 c-8 -9 -22 -14 -32 -12 -10 3 -16 1 -12 -4 7 -12 51 -11
59 1 11 18 47 10 66 -14 24 -30 55 -36 91 -19 26 12 29 11 54 -17 28 -31 52
-37 84 -20 22 12 50 3 50 -16 0 -22 46 -47 72 -38 13 4 30 7 38 6 11 -2 10 1
-4 12 -13 11 -25 12 -43 5 -29 -11 -43 -5 -43 20 0 27 -66 45 -94 26 -28 -20
-35 -19 -46 9 -10 29 -73 47 -93 27 -19 -19 -47 -12 -57 14 -6 15 -17 25 -29
25 -11 0 -26 2 -34 5 -7 3 -20 -1 -27 -10z"/>
<path d="M5137 4863 c-11 -19 -74 -184 -142 -369 -40 -110 -101 -268 -135
-350 -35 -82 -65 -167 -68 -190 l-4 -41 78 -31 c164 -64 275 -101 532 -178 78
-23 95 -25 102 -14 5 8 25 61 45 118 28 78 35 112 31 138 -4 19 -11 34 -16 34
-9 0 -32 -58 -65 -160 -10 -30 -20 -58 -24 -62 -6 -6 -107 13 -321 61 -52 12
-144 38 -204 58 l-108 36 6 43 c6 44 36 140 107 334 22 63 72 206 110 318 38
111 73 211 79 221 8 16 18 18 62 15 29 -3 64 -9 78 -14 14 -4 50 -14 80 -20
46 -10 157 -42 418 -122 36 -11 36 -14 5 -88 -19 -45 -146 -387 -188 -505 -31
-86 -31 -91 -15 -108 10 -10 21 -14 24 -9 7 11 41 103 137 372 117 325 115
318 99 334 -23 20 -114 50 -405 132 -61 17 -249 54 -275 54 -10 0 -21 -3 -23
-7z"/>
<path d="M5051 4818 c-1 -17 -9 -32 -22 -38 -11 -7 -18 -14 -16 -17 8 -7 44
14 49 29 3 7 2 22 -3 33 -7 17 -8 17 -8 -7z"/>
<path d="M4998 4690 c4 -27 0 -38 -20 -54 -32 -27 -50 -70 -36 -84 16 -16 1
-60 -23 -67 -25 -8 -44 -54 -29 -69 18 -18 11 -45 -15 -62 -37 -24 -47 -48
-34 -77 8 -18 8 -30 -2 -48 -11 -22 -11 -23 5 -9 14 11 17 24 13 54 -5 37 -2
44 30 73 26 24 33 37 28 50 -20 48 -18 61 15 78 31 16 32 19 26 61 -6 49 0 74
19 74 18 0 45 34 45 56 0 11 -6 28 -13 39 -13 16 -13 15 -9 -15z"/>
<path d="M5890 4659 c0 -5 5 -7 10 -4 6 3 10 8 10 11 0 2 -4 4 -10 4 -5 0 -10
-5 -10 -11z"/>
<path d="M5900 4574 c0 -5 -10 -14 -22 -19 -11 -6 -25 -20 -29 -33 -7 -19 -2
-16 28 13 20 19 33 38 30 42 -4 3 -7 2 -7 -3z"/>
<path d="M5141 4505 c-48 -41 -66 -103 -65 -225 1 -91 5 -115 31 -180 39 -101
58 -112 139 -80 74 30 183 101 241 157 84 82 122 223 73 268 -47 42 -131 13
-222 -76 -32 -31 -58 -54 -59 -50 0 3 0 25 1 49 2 58 -16 107 -51 137 -38 31
-50 31 -88 0z"/>
<path d="M5856 4473 c5 -22 -3 -33 -38 -56 -31 -19 -36 -48 -13 -67 18 -15 4
-46 -26 -55 -28 -9 -42 -50 -28 -78 10 -17 9 -23 -6 -32 -10 -5 -29 -20 -43
-31 -26 -21 -26 -22 -8 -49 11 -17 15 -36 12 -51 -4 -13 -2 -24 3 -24 16 0 23
57 10 78 -15 24 2 52 31 52 22 0 34 43 20 70 -8 15 -6 24 10 40 11 11 24 20
29 20 16 0 22 49 9 70 -12 19 -9 24 18 48 38 33 48 57 29 72 -11 9 -13 7 -9
-7z"/>
<path d="M3900 4430 c14 -4 34 -8 45 -8 16 0 15 2 -5 8 -14 4 -34 8 -45 8 -16
0 -15 -2 5 -8z"/>
<path d="M4005 4405 c21 -8 41 -12 44 -10 5 6 -47 25 -67 25 -9 -1 1 -7 23
-15z"/>
<path d="M4071 4375 c5 -5 51 -10 102 -10 74 0 98 -4 124 -20 18 -11 52 -32
76 -47 24 -15 79 -36 123 -48 43 -12 87 -24 97 -27 9 -3 17 -1 17 4 0 12 -44
33 -69 33 -37 0 -167 51 -217 86 -51 35 -54 36 -157 37 -69 1 -103 -1 -96 -8z"/>
<path d="M4789 4189 c-8 -16 -8 -28 0 -46 16 -35 14 -41 -19 -58 -34 -18 -47
-53 -30 -85 9 -16 8 -25 -2 -37 -11 -14 -11 -15 2 -11 18 6 25 44 12 61 -14
16 7 55 39 71 17 9 23 19 21 37 -2 13 -4 39 -3 57 0 38 -4 40 -20 11z"/>
<path d="M5655 4010 c-15 -17 -16 -24 -6 -46 16 -36 6 -63 -37 -100 -36 -31
-36 -33 -24 -67 15 -42 9 -61 -24 -76 -24 -11 -25 -15 -19 -60 4 -27 3 -51 -2
-54 -18 -12 -65 6 -73 28 -11 28 -42 40 -69 26 -29 -16 -81 -2 -93 25 -6 13
-19 26 -29 29 -18 6 -85 -22 -76 -32 3 -2 16 2 29 11 25 16 41 11 50 -15 8
-20 82 -39 125 -32 25 4 32 1 38 -16 6 -19 38 -33 99 -43 25 -4 39 44 24 78
-12 25 3 54 27 54 19 0 26 41 13 77 -13 36 1 63 32 63 21 0 40 62 33 108 -3
18 0 38 7 47 19 23 -4 18 -25 -5z"/>
<path d="M4680 3910 c-22 -43 -26 -70 -10 -70 6 0 10 10 10 23 0 12 9 37 20
55 11 17 15 32 10 32 -5 0 -19 -18 -30 -40z"/>
<path d="M4723 3845 c-20 -22 -15 -30 6 -11 29 27 65 17 71 -19 3 -20 12 -31
25 -32 11 -2 14 0 8 3 -7 3 -13 16 -13 28 0 12 -5 27 -12 34 -16 16 -70 14
-85 -3z"/>
<path d="M4903 3798 c-24 -31 -24 -41 0 -19 22 20 29 22 42 11 8 -7 15 -21 15
-31 0 -12 12 -21 38 -28 49 -14 49 -14 72 9 23 23 15 27 -11 5 -24 -22 -68 -9
-80 24 -16 40 -55 55 -76 29z"/>
<path d="M5113 3745 c10 -9 15 -21 11 -26 -6 -11 44 -32 60 -25 6 2 3 5 -6 5
-9 1 -23 13 -30 28 -7 15 -22 29 -32 31 -18 4 -19 3 -3 -13z"/>
<path d="M4136 3701 c10 -9 179 -71 279 -101 33 -11 89 -31 125 -46 48 -20 91
-29 167 -34 61 -5 110 -13 121 -21 9 -8 47 -41 83 -74 96 -87 132 -102 332
-134 112 -19 188 -36 216 -50 60 -31 75 -20 19 13 -60 35 -86 42 -226 61 -210
29 -248 44 -344 134 -35 32 -73 63 -85 70 -12 6 -67 16 -121 21 -108 10 -108
10 -207 50 -109 44 -376 127 -359 111z"/>
<path d="M3770 3133 c8 -3 67 -27 130 -54 150 -63 215 -79 327 -79 87 0 156
-15 173 -38 8 -12 83 -68 108 -81 13 -7 81 -27 151 -45 87 -23 161 -50 230
-85 75 -38 120 -54 169 -60 37 -5 84 -16 104 -25 45 -19 91 -21 86 -3 -5 14
-157 55 -210 56 -22 1 -66 16 -110 39 -105 54 -169 78 -285 106 -112 27 -165
51 -217 96 -53 47 -100 62 -190 62 -109 0 -191 18 -331 72 -64 25 -124 46
-133 45 -14 0 -14 -2 -2 -6z"/>
<path d="M3570 3876 c0 -8 61 -38 95 -46 17 -4 38 -11 49 -15 13 -6 17 -4 14
5 -2 7 -31 21 -64 30 -32 10 -67 21 -76 25 -10 4 -18 5 -18 1z"/>
<path d="M6008 3547 c19 -6 45 -26 59 -44 14 -19 36 -39 47 -45 12 -6 -4 15
-35 46 -39 38 -64 56 -80 55 -20 -1 -18 -3 9 -12z"/>
<path d="M5835 3310 c33 -42 47 -50 84 -50 27 0 32 3 21 10 -8 5 -25 10 -37
10 -12 0 -36 12 -55 27 -32 26 -32 26 -13 3z"/>
<path d="M3885 2470 c10 -11 20 -20 23 -20 3 0 -3 9 -13 20 -10 11 -20 20 -23
20 -3 0 3 -9 13 -20z"/>
<path d="M3950 2415 c13 -14 26 -25 28 -25 3 0 -5 11 -18 25 -13 14 -26 25
-28 25 -3 0 5 -11 18 -25z"/>
<path d="M4133 2315 c8 -8 25 -31 38 -51 15 -25 39 -44 74 -60 29 -12 82 -41
119 -64 37 -22 65 -37 62 -32 -8 13 -132 86 -178 105 -23 10 -51 35 -73 66
-20 28 -41 51 -47 51 -5 0 -3 -7 5 -15z"/>
<path d="M4450 5365 c0 -2 31 -24 69 -49 38 -24 72 -49 75 -55 4 -6 12 -11 18
-11 19 0 -12 29 -82 75 -64 43 -80 51 -80 40z"/>
</g>
</svg>
